<?xml version="1.0" standalone="no"?>
<!DOCTYPE svg PUBLIC "-//W3C//DTD SVG 20010904//EN"
 "http://www.w3.org/TR/2001/REC-SVG-20010904/DTD/svg10.dtd">
<svg version="1.0" xmlns="http://www.w3.org/2000/svg"
 width="50.000000pt" height="50.000000pt" viewBox="0 0 50.000000 50.000000"
 preserveAspectRatio="xMidYMid meet">
<metadata>
Created by potrace 1.16, written by Peter Selinger 2001-2019
</metadata>
<g transform="translate(0.000000,50.000000) scale(0.100000,-0.100000)"
fill="#000000" stroke="none">
<path d="M112 459 c-46 -46 -61 -101 -45 -166 8 -33 6 -44 -15 -77 -16 -27
-26 -60 -29 -100 -4 -52 -2 -65 17 -88 29 -38 95 -39 168 -2 l53 26 49 -21
c61 -26 71 -26 104 0 34 27 35 70 2 96 l-23 19 23 28 c29 33 31 67 6 89 -32
29 -67 21 -105 -23 -37 -44 -48 -48 -68 -24 -11 14 -7 22 33 57 56 50 68 73
68 126 0 34 -6 44 -37 70 -33 27 -45 31 -99 31 -59 0 -64 -2 -102 -41z m98
-94 c-27 -29 -37 -27 -20 4 6 12 18 21 27 21 13 0 12 -5 -7 -25z"/>
</g>
</svg>
