<?xml version="1.0" standalone="no"?>
<!DOCTYPE svg PUBLIC "-//W3C//DTD SVG 20010904//EN"
 "http://www.w3.org/TR/2001/REC-SVG-20010904/DTD/svg10.dtd">
<svg version="1.0" xmlns="http://www.w3.org/2000/svg"
 width="50.000000pt" height="50.000000pt" viewBox="0 0 50.000000 50.000000"
 preserveAspectRatio="xMidYMid meet">
<metadata>
Created by potrace 1.16, written by Peter Selinger 2001-2019
</metadata>
<g transform="translate(0.000000,50.000000) scale(0.100000,-0.100000)"
fill="#000000" stroke="none">
<path d="M235 488 c-43 -23 -76 -64 -90 -112 -19 -62 -19 -196 -2 -239 35 -83
160 -144 207 -102 39 35 14 105 -37 105 -11 0 -30 11 -42 24 -21 22 -23 32
-19 106 3 71 6 84 27 101 14 11 39 19 62 19 62 0 104 61 67 98 -15 15 -146 15
-173 0z"/>
</g>
</svg>
