<?xml version="1.0" standalone="no"?>
<!DOCTYPE svg PUBLIC "-//W3C//DTD SVG 20010904//EN"
 "http://www.w3.org/TR/2001/REC-SVG-20010904/DTD/svg10.dtd">
<svg version="1.0" xmlns="http://www.w3.org/2000/svg"
 width="50.000000pt" height="50.000000pt" viewBox="0 0 50.000000 50.000000"
 preserveAspectRatio="xMidYMid meet">
<metadata>
Created by potrace 1.16, written by Peter Selinger 2001-2019
</metadata>
<g transform="translate(0.000000,50.000000) scale(0.100000,-0.100000)"
fill="#000000" stroke="none">
<path d="M92 488 c-37 -37 5 -98 67 -98 23 0 48 -8 62 -19 21 -17 24 -30 27
-101 4 -74 2 -84 -19 -106 -12 -13 -32 -24 -44 -24 -49 0 -73 -71 -35 -105 47
-42 172 19 207 102 17 43 17 177 -2 239 -14 49 -48 90 -92 113 -29 15 -156 14
-171 -1z"/>
</g>
</svg>
