<?xml version="1.0" standalone="no"?>
<!DOCTYPE svg PUBLIC "-//W3C//DTD SVG 20010904//EN"
 "http://www.w3.org/TR/2001/REC-SVG-20010904/DTD/svg10.dtd">
<svg version="1.0" xmlns="http://www.w3.org/2000/svg"
 width="50.000000pt" height="50.000000pt" viewBox="0 0 50.000000 50.000000"
 preserveAspectRatio="xMidYMid meet">
<metadata>
Created by potrace 1.16, written by Peter Selinger 2001-2019
</metadata>
<g transform="translate(0.000000,50.000000) scale(0.100000,-0.100000)"
fill="#000000" stroke="none">
<path d="M188 452 c-33 -22 -132 -130 -141 -154 -8 -22 29 -68 55 -68 12 0 37
12 56 26 29 23 33 24 29 8 -3 -11 -8 -45 -12 -77 l-6 -57 -48 0 c-52 0 -81
-20 -81 -56 0 -59 49 -72 275 -73 141 -1 155 3 155 49 0 42 -27 58 -102 62
-38 3 -71 7 -74 10 -3 3 -1 41 5 83 18 126 14 208 -10 239 -24 31 -62 34 -101
8z"/>
</g>
</svg>
