<?xml version="1.0" standalone="no"?>
<!DOCTYPE svg PUBLIC "-//W3C//DTD SVG 20010904//EN"
 "http://www.w3.org/TR/2001/REC-SVG-20010904/DTD/svg10.dtd">
<svg version="1.0" xmlns="http://www.w3.org/2000/svg"
 width="50.000000pt" height="50.000000pt" viewBox="0 0 50.000000 50.000000"
 preserveAspectRatio="xMidYMid meet">
<metadata>
Created by potrace 1.16, written by Peter Selinger 2001-2019
</metadata>
<g transform="translate(0.000000,50.000000) scale(0.100000,-0.100000)"
fill="#000000" stroke="none">
<path d="M105 478 c-48 -26 -58 -65 -24 -99 18 -18 28 -20 65 -14 68 10 116
-14 62 -31 -82 -24 -75 -124 8 -124 36 0 70 -22 60 -39 -13 -20 -70 -44 -104
-43 -37 2 -72 -27 -72 -58 0 -30 47 -70 82 -70 45 0 150 53 186 94 27 31 32
45 32 86 0 40 -5 56 -28 82 -25 27 -28 35 -19 58 6 15 7 40 3 56 -10 38 -76
99 -116 108 -49 9 -112 7 -135 -6z"/>
</g>
</svg>
