<?xml version="1.0" standalone="no"?>
<!DOCTYPE svg PUBLIC "-//W3C//DTD SVG 20010904//EN"
 "http://www.w3.org/TR/2001/REC-SVG-20010904/DTD/svg10.dtd">
<svg version="1.0" xmlns="http://www.w3.org/2000/svg"
 width="50.000000pt" height="50.000000pt" viewBox="0 0 50.000000 50.000000"
 preserveAspectRatio="xMidYMid meet">
<metadata>
Created by potrace 1.16, written by Peter Selinger 2001-2019
</metadata>
<g transform="translate(0.000000,50.000000) scale(0.100000,-0.100000)"
fill="#000000" stroke="none">
<path d="M147 449 c-49 -41 -67 -77 -67 -138 0 -39 6 -56 26 -81 30 -35 73
-60 103 -60 18 0 19 -3 9 -25 -6 -14 -17 -25 -23 -25 -14 0 -39 -28 -48 -52
-10 -27 30 -68 66 -68 24 0 41 11 78 49 60 63 92 158 93 279 l1 84 -37 34
c-35 31 -43 34 -101 34 -55 0 -67 -4 -100 -31z m123 -119 c0 -23 -5 -31 -24
-36 -30 -7 -46 1 -46 25 0 24 20 41 47 41 19 0 23 -5 23 -30z"/>
</g>
</svg>
