<?xml version="1.0" standalone="no"?>
<!DOCTYPE svg PUBLIC "-//W3C//DTD SVG 20010904//EN"
 "http://www.w3.org/TR/2001/REC-SVG-20010904/DTD/svg10.dtd">
<svg version="1.0" xmlns="http://www.w3.org/2000/svg"
 width="50.000000pt" height="50.000000pt" viewBox="0 0 50.000000 50.000000"
 preserveAspectRatio="xMidYMid meet">
<metadata>
Created by potrace 1.16, written by Peter Selinger 2001-2019
</metadata>
<g transform="translate(0.000000,50.000000) scale(0.100000,-0.100000)"
fill="#000000" stroke="none">
<path d="M46 371 c-22 -24 -20 -57 4 -81 21 -21 69 -25 283 -23 79 0 101 4
117 18 23 21 26 53 7 79 -12 16 -34 19 -204 22 -173 3 -192 2 -207 -15z"/>
<path d="M190 233 c-137 -4 -160 -13 -160 -63 0 -50 25 -60 141 -59 180 1 269
12 285 34 19 26 17 52 -6 75 -16 16 -31 20 -77 18 -32 -1 -114 -4 -183 -5z"/>
</g>
</svg>
