<?xml version="1.0" standalone="no"?>
<!DOCTYPE svg PUBLIC "-//W3C//DTD SVG 20010904//EN"
 "http://www.w3.org/TR/2001/REC-SVG-20010904/DTD/svg10.dtd">
<svg version="1.0" xmlns="http://www.w3.org/2000/svg"
 width="50.000000pt" height="50.000000pt" viewBox="0 0 50.000000 50.000000"
 preserveAspectRatio="xMidYMid meet">
<metadata>
Created by potrace 1.16, written by Peter Selinger 2001-2019
</metadata>
<g transform="translate(0.000000,50.000000) scale(0.100000,-0.100000)"
fill="#000000" stroke="none">
<path d="M195 484 c-140 -65 -194 -184 -150 -331 18 -62 56 -97 127 -118 93
-27 175 -18 218 25 25 25 26 54 1 79 -19 19 -19 20 1 38 39 35 61 94 62 163 1
74 -15 122 -50 145 -30 19 -166 19 -209 -1z m142 -110 c3 -8 1 -34 -5 -57 -8
-37 -10 -38 -11 -13 -1 36 -27 66 -55 66 -17 0 -18 2 -6 10 24 15 70 12 77 -6z"/>
</g>
</svg>
