<?xml version="1.0" standalone="no"?>
<!DOCTYPE svg PUBLIC "-//W3C//DTD SVG 20010904//EN"
 "http://www.w3.org/TR/2001/REC-SVG-20010904/DTD/svg10.dtd">
<svg version="1.0" xmlns="http://www.w3.org/2000/svg"
 width="50.000000pt" height="50.000000pt" viewBox="0 0 50.000000 50.000000"
 preserveAspectRatio="xMidYMid meet">
<metadata>
Created by potrace 1.16, written by Peter Selinger 2001-2019
</metadata>
<g transform="translate(0.000000,50.000000) scale(0.100000,-0.100000)"
fill="#000000" stroke="none">
<path d="M51 476 c-21 -23 -22 -26 -11 -137 26 -275 31 -313 41 -326 15 -18
205 -8 266 13 112 40 144 174 64 267 -22 25 -27 39 -24 63 6 38 -16 83 -57
118 -30 25 -37 26 -144 26 -105 0 -114 -2 -135 -24z m194 -90 c33 -15 30 -17
-42 -34 -43 -10 -43 -10 -43 19 0 25 4 29 28 29 15 -1 41 -7 57 -14z m63 -163
c57 -50 25 -93 -69 -93 -55 0 -57 1 -63 31 -12 62 -9 68 37 72 23 2 49 4 58 5
9 1 26 -6 37 -15z"/>
</g>
</svg>
