<?xml version="1.0" standalone="no"?>
<!DOCTYPE svg PUBLIC "-//W3C//DTD SVG 20010904//EN"
 "http://www.w3.org/TR/2001/REC-SVG-20010904/DTD/svg10.dtd">
<svg version="1.0" xmlns="http://www.w3.org/2000/svg"
 width="50.000000pt" height="50.000000pt" viewBox="0 0 50.000000 50.000000"
 preserveAspectRatio="xMidYMid meet">
<metadata>
Created by potrace 1.16, written by Peter Selinger 2001-2019
</metadata>
<g transform="translate(0.000000,50.000000) scale(0.100000,-0.100000)"
fill="#000000" stroke="none">
<path d="M216 490 c-85 -15 -149 -81 -172 -176 -27 -117 -10 -192 55 -247 47
-39 94 -50 192 -45 119 7 160 33 145 93 -10 39 -41 47 -116 32 -76 -16 -127
-8 -152 24 -22 26 -23 60 -3 126 15 51 20 55 87 77 10 3 54 0 97 -6 73 -11 82
-10 101 7 44 40 8 98 -70 109 -86 13 -117 14 -164 6z"/>
</g>
</svg>
