<?xml version="1.0" standalone="no"?>
<!DOCTYPE svg PUBLIC "-//W3C//DTD SVG 20010904//EN"
 "http://www.w3.org/TR/2001/REC-SVG-20010904/DTD/svg10.dtd">
<svg version="1.0" xmlns="http://www.w3.org/2000/svg"
 width="50.000000pt" height="50.000000pt" viewBox="0 0 50.000000 50.000000"
 preserveAspectRatio="xMidYMid meet">
<metadata>
Created by potrace 1.16, written by Peter Selinger 2001-2019
</metadata>
<g transform="translate(0.000000,50.000000) scale(0.100000,-0.100000)"
fill="#000000" stroke="none">
<path d="M103 491 c-43 -19 -56 -55 -49 -134 4 -45 0 -116 -9 -191 -15 -107
-15 -120 0 -142 15 -23 21 -24 110 -24 85 0 100 3 138 26 137 85 214 245 163
342 -22 41 -76 87 -125 106 -52 20 -196 30 -228 17z m197 -136 c59 -31 63 -69
14 -153 -20 -34 -39 -50 -87 -73 -33 -15 -62 -27 -64 -25 -2 2 1 47 7 101 6
53 8 115 5 138 l-7 40 52 -7 c29 -4 65 -13 80 -21z"/>
</g>
</svg>
