<?xml version="1.0" standalone="no"?>
<!DOCTYPE svg PUBLIC "-//W3C//DTD SVG 20010904//EN"
 "http://www.w3.org/TR/2001/REC-SVG-20010904/DTD/svg10.dtd">
<svg version="1.0" xmlns="http://www.w3.org/2000/svg"
 width="50.000000pt" height="50.000000pt" viewBox="0 0 50.000000 50.000000"
 preserveAspectRatio="xMidYMid meet">
<metadata>
Created by potrace 1.16, written by Peter Selinger 2001-2019
</metadata>
<g transform="translate(0.000000,50.000000) scale(0.100000,-0.100000)"
fill="#000000" stroke="none">
<path d="M180 490 c0 -5 1 -12 3 -15 1 -3 -16 -14 -38 -24 -61 -28 -87 -62
-93 -121 -4 -48 -2 -54 29 -86 20 -20 47 -36 68 -40 33 -6 50 -19 51 -36 0 -3
-26 -4 -59 -1 -50 5 -61 3 -80 -16 -11 -11 -21 -30 -21 -41 0 -29 35 -60 69
-60 53 0 90 -12 96 -31 5 -15 16 -19 56 -19 47 0 50 2 55 30 5 23 14 32 40 39
84 23 131 96 104 161 -16 39 -72 78 -122 86 -55 9 -50 34 5 34 30 0 49 6 60
18 40 44 4 102 -63 102 -27 0 -43 5 -46 15 -7 17 -114 22 -114 5z m150 -294
c0 -3 -4 -8 -10 -11 -5 -3 -10 -1 -10 4 0 6 5 11 10 11 6 0 10 -2 10 -4z"/>
</g>
</svg>
