<?xml version="1.0" standalone="no"?>
<!DOCTYPE svg PUBLIC "-//W3C//DTD SVG 20010904//EN"
 "http://www.w3.org/TR/2001/REC-SVG-20010904/DTD/svg10.dtd">
<svg version="1.0" xmlns="http://www.w3.org/2000/svg"
 width="50.000000pt" height="50.000000pt" viewBox="0 0 50.000000 50.000000"
 preserveAspectRatio="xMidYMid meet">
<metadata>
Created by potrace 1.16, written by Peter Selinger 2001-2019
</metadata>
<g transform="translate(0.000000,50.000000) scale(0.100000,-0.100000)"
fill="#000000" stroke="none">
<path d="M86 469 l-26 -21 6 -121 c5 -110 1 -168 -22 -267 -3 -14 1 -32 8 -42
12 -14 32 -16 177 -11 142 5 166 8 182 24 24 24 24 54 1 77 -15 15 -37 19
-122 20 -57 1 -105 4 -108 7 -2 2 -2 16 2 30 6 25 8 25 105 25 108 0 131 11
131 62 0 46 -27 58 -133 58 l-97 0 0 30 0 30 103 0 c88 0 106 3 120 18 23 25
21 58 -3 82 -18 18 -33 20 -159 20 -125 0 -141 -2 -165 -21z"/>
</g>
</svg>
