<?xml version="1.0" standalone="no"?>
<!DOCTYPE svg PUBLIC "-//W3C//DTD SVG 20010904//EN"
 "http://www.w3.org/TR/2001/REC-SVG-20010904/DTD/svg10.dtd">
<svg version="1.0" xmlns="http://www.w3.org/2000/svg"
 width="50.000000pt" height="50.000000pt" viewBox="0 0 50.000000 50.000000"
 preserveAspectRatio="xMidYMid meet">
<metadata>
Created by potrace 1.16, written by Peter Selinger 2001-2019
</metadata>
<g transform="translate(0.000000,50.000000) scale(0.100000,-0.100000)"
fill="#000000" stroke="none">
<path d="M148 467 c-35 -19 -73 -48 -85 -66 -72 -106 -39 -326 56 -376 33 -17
129 -20 178 -6 25 7 33 6 37 -5 4 -11 19 -14 53 -12 l48 3 6 115 c6 107 5 117
-14 138 -19 20 -30 22 -119 22 -85 0 -101 -3 -118 -20 -46 -46 -13 -100 63
-100 26 0 47 -4 47 -9 0 -12 -36 -21 -86 -21 -34 0 -43 4 -52 25 -20 43 -24
99 -13 143 10 34 19 46 54 64 35 18 57 21 131 20 71 -2 93 1 108 14 24 22 23
59 -2 84 -17 17 -33 20 -124 20 -99 0 -108 -2 -168 -33z"/>
</g>
</svg>
