<?xml version="1.0" standalone="no"?>
<!DOCTYPE svg PUBLIC "-//W3C//DTD SVG 20010904//EN"
 "http://www.w3.org/TR/2001/REC-SVG-20010904/DTD/svg10.dtd">
<svg version="1.0" xmlns="http://www.w3.org/2000/svg"
 width="50.000000pt" height="50.000000pt" viewBox="0 0 50.000000 50.000000"
 preserveAspectRatio="xMidYMid meet">
<metadata>
Created by potrace 1.16, written by Peter Selinger 2001-2019
</metadata>
<g transform="translate(0.000000,50.000000) scale(0.100000,-0.100000)"
fill="#000000" stroke="none">
<path d="M265 432 c-79 -61 -169 -154 -184 -191 -10 -24 -10 -34 3 -59 28 -55
221 -162 290 -162 49 0 75 70 39 102 -10 9 -43 23 -73 33 -68 21 -120 52 -120
70 0 8 30 38 68 69 133 108 143 125 102 166 -30 30 -59 23 -125 -28z"/>
</g>
</svg>
