<?xml version="1.0" standalone="no"?>
<!DOCTYPE svg PUBLIC "-//W3C//DTD SVG 20010904//EN"
 "http://www.w3.org/TR/2001/REC-SVG-20010904/DTD/svg10.dtd">
<svg version="1.0" xmlns="http://www.w3.org/2000/svg"
 width="50.000000pt" height="50.000000pt" viewBox="0 0 50.000000 50.000000"
 preserveAspectRatio="xMidYMid meet">
<metadata>
Created by potrace 1.16, written by Peter Selinger 2001-2019
</metadata>
<g transform="translate(0.000000,50.000000) scale(0.100000,-0.100000)"
fill="#000000" stroke="none">
<path d="M37 494 c-10 -10 5 -468 16 -481 14 -19 93 -17 101 3 3 9 6 46 6 84
0 78 -4 74 96 85 l62 7 4 -70 c4 -80 24 -112 68 -112 49 0 54 16 51 198 -1 92
-6 187 -11 211 -13 69 -59 92 -101 50 -18 -18 -19 -28 -13 -88 l6 -68 -38 -6
c-22 -4 -58 -7 -81 -7 l-41 0 -7 78 c-9 111 -15 122 -68 122 -24 0 -46 -3 -50
-6z"/>
</g>
</svg>
