<?xml version="1.0" standalone="no"?>
<!DOCTYPE svg PUBLIC "-//W3C//DTD SVG 20010904//EN"
 "http://www.w3.org/TR/2001/REC-SVG-20010904/DTD/svg10.dtd">
<svg version="1.0" xmlns="http://www.w3.org/2000/svg"
 width="50.000000pt" height="50.000000pt" viewBox="0 0 50.000000 50.000000"
 preserveAspectRatio="xMidYMid meet">
<metadata>
Created by potrace 1.16, written by Peter Selinger 2001-2019
</metadata>
<g transform="translate(0.000000,50.000000) scale(0.100000,-0.100000)"
fill="#000000" stroke="none">
<path d="M110 480 c-11 -11 -20 -29 -20 -40 0 -11 -7 -20 -15 -20 -23 0 -55
-37 -55 -64 0 -14 11 -33 25 -44 24 -19 36 -50 14 -37 -5 4 -21 4 -35 1 -23
-6 -25 -10 -22 -59 3 -49 5 -53 36 -62 29 -8 33 -14 32 -40 -3 -55 0 -64 25
-81 35 -23 69 -7 86 40 17 46 49 50 49 7 0 -17 10 -42 24 -58 21 -24 27 -26
52 -18 19 7 33 21 39 40 10 29 12 30 47 21 31 -8 41 -6 58 9 41 37 20 91 -45
112 -16 5 -32 17 -33 27 -3 15 2 17 41 11 61 -9 87 6 87 50 0 37 -21 58 -73
71 -28 7 -29 8 -22 60 5 45 3 56 -14 73 -26 26 -63 27 -84 4 -8 -10 -18 -40
-22 -66 -6 -36 -11 -47 -22 -43 -8 3 -23 6 -34 6 -16 0 -19 7 -19 43 0 70 -55
102 -100 57z m140 -235 c0 -16 -17 -19 -44 -9 -26 10 -18 24 14 24 20 0 30 -5
30 -15z"/>
</g>
</svg>
