<?xml version="1.0" standalone="no"?>
<!DOCTYPE svg PUBLIC "-//W3C//DTD SVG 20010904//EN"
 "http://www.w3.org/TR/2001/REC-SVG-20010904/DTD/svg10.dtd">
<svg version="1.0" xmlns="http://www.w3.org/2000/svg"
 width="50.000000pt" height="50.000000pt" viewBox="0 0 50.000000 50.000000"
 preserveAspectRatio="xMidYMid meet">
<metadata>
Created by potrace 1.16, written by Peter Selinger 2001-2019
</metadata>
<g transform="translate(0.000000,50.000000) scale(0.100000,-0.100000)"
fill="#000000" stroke="none">
<path d="M47 493 c-3 -4 -1 -93 4 -198 4 -104 8 -205 9 -222 0 -19 9 -42 20
-53 18 -18 33 -20 183 -20 146 0 166 2 180 18 23 25 21 58 -3 82 -18 18 -33
20 -139 20 l-118 0 -7 38 c-3 20 -6 93 -7 162 -1 171 -3 174 -66 178 -28 2
-53 -1 -56 -5z"/>
</g>
</svg>
