<?xml version="1.0" standalone="no"?>
<!DOCTYPE svg PUBLIC "-//W3C//DTD SVG 20010904//EN"
 "http://www.w3.org/TR/2001/REC-SVG-20010904/DTD/svg10.dtd">
<svg version="1.0" xmlns="http://www.w3.org/2000/svg"
 width="50.000000pt" height="50.000000pt" viewBox="0 0 50.000000 50.000000"
 preserveAspectRatio="xMidYMid meet">
<metadata>
Created by potrace 1.16, written by Peter Selinger 2001-2019
</metadata>
<g transform="translate(0.000000,50.000000) scale(0.100000,-0.100000)"
fill="#000000" stroke="none">
<path d="M110 460 c-41 -41 -31 -58 103 -166 37 -31 67 -61 67 -69 0 -18 -52
-49 -120 -70 -30 -10 -63 -24 -72 -33 -38 -32 -10 -102 39 -102 68 0 261 108
289 162 13 25 13 35 3 59 -25 62 -225 239 -269 239 -11 0 -29 -9 -40 -20z"/>
</g>
</svg>
