<?xml version="1.0" standalone="no"?>
<!DOCTYPE svg PUBLIC "-//W3C//DTD SVG 20010904//EN"
 "http://www.w3.org/TR/2001/REC-SVG-20010904/DTD/svg10.dtd">
<svg version="1.0" xmlns="http://www.w3.org/2000/svg"
 width="50.000000pt" height="50.000000pt" viewBox="0 0 50.000000 50.000000"
 preserveAspectRatio="xMidYMid meet">
<metadata>
Created by potrace 1.16, written by Peter Selinger 2001-2019
</metadata>
<g transform="translate(0.000000,50.000000) scale(0.100000,-0.100000)"
fill="#000000" stroke="none">
<path d="M311 465 c-17 -20 -31 -41 -31 -47 0 -6 -9 1 -21 16 -43 55 -90 23
-154 -104 -46 -92 -105 -245 -105 -273 0 -27 28 -57 54 -57 36 0 54 21 82 97
l28 78 7 -44 c6 -47 28 -71 64 -71 32 0 61 38 81 105 l18 60 8 -75 c4 -41 10
-85 13 -97 12 -49 86 -54 107 -9 7 18 7 51 -1 119 -6 53 -11 124 -11 159 -1
84 -14 139 -41 161 -33 27 -63 21 -98 -18z"/>
</g>
</svg>
