<?xml version="1.0" standalone="no"?>
<!DOCTYPE svg PUBLIC "-//W3C//DTD SVG 20010904//EN"
 "http://www.w3.org/TR/2001/REC-SVG-20010904/DTD/svg10.dtd">
<svg version="1.0" xmlns="http://www.w3.org/2000/svg"
 width="50.000000pt" height="50.000000pt" viewBox="0 0 50.000000 50.000000"
 preserveAspectRatio="xMidYMid meet">
<metadata>
Created by potrace 1.16, written by Peter Selinger 2001-2019
</metadata>
<g transform="translate(0.000000,50.000000) scale(0.100000,-0.100000)"
fill="#000000" stroke="none">
<path d="M193 479 c-130 -64 -193 -251 -128 -379 39 -76 84 -100 187 -100 135
1 205 47 227 150 15 69 14 107 -4 168 -20 66 -68 115 -150 153 -75 35 -78 35
-132 8z m124 -139 c23 -13 35 -31 43 -61 13 -47 6 -122 -13 -137 -21 -18 -98
-33 -128 -27 -71 16 -78 154 -12 227 21 24 70 23 110 -2z"/>
</g>
</svg>
