<?xml version="1.0" standalone="no"?>
<!DOCTYPE svg PUBLIC "-//W3C//DTD SVG 20010904//EN"
 "http://www.w3.org/TR/2001/REC-SVG-20010904/DTD/svg10.dtd">
<svg version="1.0" xmlns="http://www.w3.org/2000/svg"
 width="50.000000pt" height="50.000000pt" viewBox="0 0 50.000000 50.000000"
 preserveAspectRatio="xMidYMid meet">
<metadata>
Created by potrace 1.16, written by Peter Selinger 2001-2019
</metadata>
<g transform="translate(0.000000,50.000000) scale(0.100000,-0.100000)"
fill="#000000" stroke="none">
<path d="M139 493 c-15 -2 -36 -14 -47 -26 -19 -20 -22 -41 -31 -222 -11 -228
-8 -245 52 -245 45 0 57 16 57 76 0 59 6 64 78 64 61 1 120 28 171 79 37 37
41 46 41 89 0 103 -90 172 -245 185 -27 3 -62 3 -76 0z m159 -144 c31 -13 43
-24 40 -36 -4 -25 -65 -53 -115 -53 -43 0 -43 0 -43 38 0 68 8 82 44 75 17 -3
50 -14 74 -24z"/>
</g>
</svg>
