<?xml version="1.0" standalone="no"?>
<!DOCTYPE svg PUBLIC "-//W3C//DTD SVG 20010904//EN"
 "http://www.w3.org/TR/2001/REC-SVG-20010904/DTD/svg10.dtd">
<svg version="1.0" xmlns="http://www.w3.org/2000/svg"
 width="50.000000pt" height="50.000000pt" viewBox="0 0 50.000000 50.000000"
 preserveAspectRatio="xMidYMid meet">
<metadata>
Created by potrace 1.16, written by Peter Selinger 2001-2019
</metadata>
<g transform="translate(0.000000,50.000000) scale(0.100000,-0.100000)"
fill="#000000" stroke="none">
<path d="M31 465 c-56 -64 -37 -154 39 -185 16 -7 39 -10 50 -7 11 3 20 2 20
-3 0 -4 -27 -40 -60 -81 -64 -78 -79 -112 -63 -137 32 -52 74 -40 138 39 l50
62 6 -31 c9 -42 24 -60 75 -84 36 -16 48 -18 83 -8 133 35 110 264 -25 248
l-37 -4 77 71 c55 53 76 79 76 97 0 50 -61 76 -99 41 -10 -10 -38 -37 -62 -60
l-44 -42 -1 32 c0 18 -8 44 -18 60 -17 26 -22 27 -96 27 -77 0 -78 -1 -109
-35z"/>
</g>
</svg>
