<?xml version="1.0" standalone="no"?>
<!DOCTYPE svg PUBLIC "-//W3C//DTD SVG 20010904//EN"
 "http://www.w3.org/TR/2001/REC-SVG-20010904/DTD/svg10.dtd">
<svg version="1.0" xmlns="http://www.w3.org/2000/svg"
 width="50.000000pt" height="50.000000pt" viewBox="0 0 50.000000 50.000000"
 preserveAspectRatio="xMidYMid meet">
<metadata>
Created by potrace 1.16, written by Peter Selinger 2001-2019
</metadata>
<g transform="translate(0.000000,50.000000) scale(0.100000,-0.100000)"
fill="#000000" stroke="none">
<path d="M223 479 c-32 -12 -46 -46 -41 -100 l5 -49 -68 0 c-75 0 -109 -19
-109 -60 0 -40 35 -60 105 -60 l65 0 0 -58 c0 -66 18 -92 62 -92 40 0 58 29
58 93 l0 57 58 0 c66 0 92 18 92 62 0 39 -29 58 -87 58 -57 0 -63 7 -63 74 0
56 -35 91 -77 75z"/>
</g>
</svg>
