<?xml version="1.0" standalone="no"?>
<!DOCTYPE svg PUBLIC "-//W3C//DTD SVG 20010904//EN"
 "http://www.w3.org/TR/2001/REC-SVG-20010904/DTD/svg10.dtd">
<svg version="1.0" xmlns="http://www.w3.org/2000/svg"
 width="50.000000pt" height="50.000000pt" viewBox="0 0 50.000000 50.000000"
 preserveAspectRatio="xMidYMid meet">
<metadata>
Created by potrace 1.16, written by Peter Selinger 2001-2019
</metadata>
<g transform="translate(0.000000,50.000000) scale(0.100000,-0.100000)"
fill="#000000" stroke="none">
<path d="M203 471 c-103 -47 -158 -257 -94 -361 38 -64 121 -88 185 -55 26 14
31 14 46 0 23 -21 56 -19 80 5 26 26 25 51 -1 84 -19 24 -19 31 -9 82 19 92 1
173 -54 232 -24 26 -37 32 -70 32 -23 0 -60 -9 -83 -19z m80 -108 c2 -5 7 -24
11 -44 6 -35 6 -35 -23 -31 -20 3 -35 -2 -50 -17 -25 -25 -25 -25 -6 30 19 53
55 85 68 62z m-57 -200 c-8 -8 -12 -3 -21 27 l-7 25 17 -23 c9 -13 14 -26 11
-29z"/>
</g>
</svg>
