<?xml version="1.0" standalone="no"?>
<!DOCTYPE svg PUBLIC "-//W3C//DTD SVG 20010904//EN"
 "http://www.w3.org/TR/2001/REC-SVG-20010904/DTD/svg10.dtd">
<svg version="1.0" xmlns="http://www.w3.org/2000/svg"
 width="50.000000pt" height="50.000000pt" viewBox="0 0 50.000000 50.000000"
 preserveAspectRatio="xMidYMid meet">
<metadata>
Created by potrace 1.16, written by Peter Selinger 2001-2019
</metadata>
<g transform="translate(0.000000,50.000000) scale(0.100000,-0.100000)"
fill="#000000" stroke="none">
<path d="M233 475 c-14 -10 -24 -12 -28 -5 -7 11 -45 13 -70 4 -24 -9 -45 -58
-45 -104 0 -53 30 -85 71 -76 21 4 35 0 49 -14 25 -25 62 -26 82 -2 9 9 18 37
21 62 3 25 9 60 13 78 12 59 -43 92 -93 57z"/>
</g>
</svg>
