<?xml version="1.0" standalone="no"?>
<!DOCTYPE svg PUBLIC "-//W3C//DTD SVG 20010904//EN"
 "http://www.w3.org/TR/2001/REC-SVG-20010904/DTD/svg10.dtd">
<svg version="1.0" xmlns="http://www.w3.org/2000/svg"
 width="50.000000pt" height="50.000000pt" viewBox="0 0 50.000000 50.000000"
 preserveAspectRatio="xMidYMid meet">
<metadata>
Created by potrace 1.16, written by Peter Selinger 2001-2019
</metadata>
<g transform="translate(0.000000,50.000000) scale(0.100000,-0.100000)"
fill="#000000" stroke="none">
<path d="M115 483 c-38 -10 -65 -36 -74 -72 -13 -47 -26 -351 -17 -385 6 -25
10 -27 59 -24 l52 3 5 76 5 77 84 -64 c90 -68 125 -78 154 -46 34 37 12 77
-66 126 -30 18 -28 36 4 36 10 0 37 16 59 36 32 29 40 43 40 71 0 42 -30 95
-71 124 -53 38 -168 58 -234 42z m121 -124 c24 -6 47 -15 50 -20 7 -12 -30
-25 -88 -31 l-48 -6 0 34 c0 39 11 42 86 23z"/>
</g>
</svg>
