<?xml version="1.0" standalone="no"?>
<!DOCTYPE svg PUBLIC "-//W3C//DTD SVG 20010904//EN"
 "http://www.w3.org/TR/2001/REC-SVG-20010904/DTD/svg10.dtd">
<svg version="1.0" xmlns="http://www.w3.org/2000/svg"
 width="50.000000pt" height="50.000000pt" viewBox="0 0 50.000000 50.000000"
 preserveAspectRatio="xMidYMid meet">
<metadata>
Created by potrace 1.16, written by Peter Selinger 2001-2019
</metadata>
<g transform="translate(0.000000,50.000000) scale(0.100000,-0.100000)"
fill="#000000" stroke="none">
<path d="M193 481 c-45 -28 -83 -88 -83 -133 0 -55 65 -120 143 -142 61 -18
71 -34 43 -72 -12 -16 -27 -19 -96 -19 -88 0 -110 -12 -110 -60 0 -43 29 -55
132 -55 113 0 149 17 186 90 53 106 6 200 -115 231 -82 21 -77 56 8 66 30 3
62 13 72 21 22 20 22 55 -1 75 -27 25 -137 23 -179 -2z"/>
</g>
</svg>
