<?xml version="1.0" standalone="no"?>
<!DOCTYPE svg PUBLIC "-//W3C//DTD SVG 20010904//EN"
 "http://www.w3.org/TR/2001/REC-SVG-20010904/DTD/svg10.dtd">
<svg version="1.0" xmlns="http://www.w3.org/2000/svg"
 width="50.000000pt" height="50.000000pt" viewBox="0 0 50.000000 50.000000"
 preserveAspectRatio="xMidYMid meet">
<metadata>
Created by potrace 1.16, written by Peter Selinger 2001-2019
</metadata>
<g transform="translate(0.000000,50.000000) scale(0.100000,-0.100000)"
fill="#000000" stroke="none">
<path d="M197 422 c-53 -58 28 -137 83 -82 25 25 25 55 0 80 -25 25 -62 26
-83 2z"/>
<path d="M187 242 c-19 -20 -23 -67 -7 -77 6 -3 10 -24 10 -46 0 -45 27 -79
63 -79 39 0 57 30 57 93 0 49 -4 61 -31 92 -35 39 -67 45 -92 17z"/>
</g>
</svg>
