<?xml version="1.0" standalone="no"?>
<!DOCTYPE svg PUBLIC "-//W3C//DTD SVG 20010904//EN"
 "http://www.w3.org/TR/2001/REC-SVG-20010904/DTD/svg10.dtd">
<svg version="1.0" xmlns="http://www.w3.org/2000/svg"
 width="50.000000pt" height="50.000000pt" viewBox="0 0 50.000000 50.000000"
 preserveAspectRatio="xMidYMid meet">
<metadata>
Created by potrace 1.16, written by Peter Selinger 2001-2019
</metadata>
<g transform="translate(0.000000,50.000000) scale(0.100000,-0.100000)"
fill="#000000" stroke="none">
<path d="M201 461 c-10 -10 -22 -33 -26 -49 -4 -21 -11 -29 -21 -25 -25 9 -64
-7 -75 -31 -11 -24 5 -70 38 -108 13 -15 13 -19 -1 -40 -22 -31 -20 -64 4 -88
27 -27 47 -25 79 9 l27 28 34 -28 c19 -16 44 -29 56 -29 47 0 72 71 36 103
-17 16 -16 19 35 74 58 62 65 91 33 123 -28 28 -44 25 -92 -17 l-41 -38 6 41
c12 73 -47 120 -92 75z"/>
</g>
</svg>
