<?xml version="1.0" standalone="no"?>
<!DOCTYPE svg PUBLIC "-//W3C//DTD SVG 20010904//EN"
 "http://www.w3.org/TR/2001/REC-SVG-20010904/DTD/svg10.dtd">
<svg version="1.0" xmlns="http://www.w3.org/2000/svg"
 width="50.000000pt" height="50.000000pt" viewBox="0 0 50.000000 50.000000"
 preserveAspectRatio="xMidYMid meet">
<metadata>
Created by potrace 1.16, written by Peter Selinger 2001-2019
</metadata>
<g transform="translate(0.000000,50.000000) scale(0.100000,-0.100000)"
fill="#000000" stroke="none">
<path d="M7 494 c-4 -4 -7 -29 -7 -55 0 -54 2 -56 95 -65 36 -4 68 -11 72 -17
3 -5 5 -73 5 -151 -1 -116 2 -144 15 -158 21 -24 58 -23 83 2 21 21 27 82 21
238 l-3 72 76 0 c63 0 80 4 96 20 25 25 26 54 2 78 -16 16 -42 20 -173 25 -85
4 -181 10 -214 13 -33 3 -63 3 -68 -2z"/>
</g>
</svg>
