<?xml version="1.0" standalone="no"?>
<!DOCTYPE svg PUBLIC "-//W3C//DTD SVG 20010904//EN"
 "http://www.w3.org/TR/2001/REC-SVG-20010904/DTD/svg10.dtd">
<svg version="1.0" xmlns="http://www.w3.org/2000/svg"
 width="50.000000pt" height="50.000000pt" viewBox="0 0 50.000000 50.000000"
 preserveAspectRatio="xMidYMid meet">
<metadata>
Created by potrace 1.16, written by Peter Selinger 2001-2019
</metadata>
<g transform="translate(0.000000,50.000000) scale(0.100000,-0.100000)"
fill="#000000" stroke="none">
<path d="M25 480 c-15 -17 -17 -35 -12 -157 2 -76 10 -155 16 -176 37 -117
202 -188 289 -123 91 67 132 166 132 318 0 97 -16 128 -63 128 -42 0 -57 -29
-56 -107 2 -107 -17 -181 -56 -220 l-33 -33 -44 18 c-37 16 -44 24 -55 63 -6
24 -12 95 -12 157 -1 98 -3 114 -21 132 -25 25 -62 26 -85 0z"/>
</g>
</svg>
