<?xml version="1.0" standalone="no"?>
<!DOCTYPE svg PUBLIC "-//W3C//DTD SVG 20010904//EN"
 "http://www.w3.org/TR/2001/REC-SVG-20010904/DTD/svg10.dtd">
<svg version="1.0" xmlns="http://www.w3.org/2000/svg"
 width="50.000000pt" height="50.000000pt" viewBox="0 0 50.000000 50.000000"
 preserveAspectRatio="xMidYMid meet">
<metadata>
Created by potrace 1.16, written by Peter Selinger 2001-2019
</metadata>
<g transform="translate(0.000000,50.000000) scale(0.100000,-0.100000)"
fill="#000000" stroke="none">
<path d="M17 482 c-10 -10 -17 -32 -17 -49 0 -41 76 -197 152 -313 58 -87 66
-95 98 -98 49 -4 67 18 133 168 31 69 69 150 86 180 50 89 38 134 -34 128 -35
-3 -39 -7 -79 -83 -22 -44 -56 -113 -74 -153 l-33 -74 -24 37 c-14 20 -46 82
-71 138 -26 56 -54 110 -62 120 -20 22 -55 22 -75 -1z"/>
</g>
</svg>
