<?xml version="1.0" standalone="no"?>
<!DOCTYPE svg PUBLIC "-//W3C//DTD SVG 20010904//EN"
 "http://www.w3.org/TR/2001/REC-SVG-20010904/DTD/svg10.dtd">
<svg version="1.0" xmlns="http://www.w3.org/2000/svg"
 width="50.000000pt" height="50.000000pt" viewBox="0 0 50.000000 50.000000"
 preserveAspectRatio="xMidYMid meet">
<metadata>
Created by potrace 1.16, written by Peter Selinger 2001-2019
</metadata>
<g transform="translate(0.000000,50.000000) scale(0.100000,-0.100000)"
fill="#000000" stroke="none">
<path d="M26 481 c-15 -17 -16 -33 -7 -172 5 -85 15 -169 21 -187 22 -59 75
-69 119 -21 l28 31 7 -26 c9 -38 41 -66 74 -66 48 0 79 45 128 186 25 71 52
139 60 151 19 30 18 67 -4 86 -51 47 -102 1 -147 -132 l-22 -66 -7 53 c-12 89
-63 117 -118 65 l-28 -27 0 52 c0 39 -5 57 -20 72 -25 25 -62 26 -84 1z"/>
</g>
</svg>
