<?xml version="1.0" standalone="no"?>
<!DOCTYPE svg PUBLIC "-//W3C//DTD SVG 20010904//EN"
 "http://www.w3.org/TR/2001/REC-SVG-20010904/DTD/svg10.dtd">
<svg version="1.0" xmlns="http://www.w3.org/2000/svg"
 width="50.000000pt" height="50.000000pt" viewBox="0 0 50.000000 50.000000"
 preserveAspectRatio="xMidYMid meet">
<metadata>
Created by potrace 1.16, written by Peter Selinger 2001-2019
</metadata>
<g transform="translate(0.000000,50.000000) scale(0.100000,-0.100000)"
fill="#000000" stroke="none">
<path d="M7 493 c-15 -15 -5 -62 21 -98 15 -21 53 -65 84 -99 l57 -61 -1 -87
c-2 -95 13 -128 57 -128 47 0 59 22 61 109 2 92 3 94 118 217 70 76 79 101 46
134 -36 36 -59 26 -140 -61 l-76 -81 -40 44 c-22 23 -52 60 -68 81 -25 32 -34
37 -71 37 -23 0 -45 -3 -48 -7z"/>
</g>
</svg>
